<svg id="eM4Kv8X0Ah61" xmlns="http://www.w3.org/2000/svg" xmlns:xlink="http://www.w3.org/1999/xlink" viewBox="0 0 1299 1299" shape-rendering="geometricPrecision" text-rendering="geometricPrecision"><g transform="matrix(.1 0 0-.1 0 1299)"><path d="M7782,7195c2,3,126,17,276,32c149,15,270,28,268,30s-91,15-197,29c-107,14-196,27-198,29-14,15,40,88,148,199l126,129-48-6c-77-11-126-42-219-140l-87-92-1,50c0,62-43,227-71,272-29,46-75,79-130,93-39,10-52,9-77-4-37-19-52-44-67-111-14-60-32-66-99-36l-46,20-19-27c-46-65-66-217-37-285c17-42,76-93,140-123c28-13,46-24,41-24-27,0-338-50-343-54-3-4,120-6,273-6h278" transform="translate(-40.16769-32.19471)" fill="#92499c"/><path d="" transform="translate(-40.16769-32.19471)" fill="#92499c"/><path d="M8297,10501c256,129,303,170,233,206-31,16-185,17-334,2-61-6-140-9-176-7l-65,3l38,17c56,25,267,76,385,92c81,11,110,20,136,39c37,29,65,79,73,135c9,58,39,97,122,159c43,32,86,63,96,68c16,10,13,15-31,47-72,52-113,70-155,70-41-1-131-40-219-96-30-19-56-34-56-33-1,1,35,78,81,170c99,202,148,338,149,420c1,69-9,80-109,116-48,17-74,33-100,64-19,22-35,44-35,49c0,4-13,14-30,23-103,53-209-28-423-325-17-24-17-24-12-3c11,40,8,207-5,253-16,62-52,114-92,132-42,20-151,27-253,17-44-4-134-17-201-28-67-12-135-21-152-21-42,0-84-44-112-119-12-34-27-64-32-67s-48,0-96,7c-155,21-203-7-260-153-43-111-61-127-153-139-94-12-157-43-242-120-82-74-103-112-112-204-10-98-23-117-109-164-90-50-131-95-141-151-10-60,4-204,27-280c18-58,29-74,107-150c137-137,205-158,430-141c195,16,260,14,300-7c19-9,36-22,39-29c2-6-21-39-52-72-72-79-88-112-94-197-4-68-3-72,26-105l30-34l203-7c112-4,222-10,244-14c37-5,45-2,96,40c79,65,168,116,202,116h30" transform="translate(-40.16769-32.19471)" fill="#92499c"/><path d="M7484.62254,10128.11684C7473.62254,9835.11684,7451,9505,7283,8920c-155-539-240-816-298-966-95-245-180-589-404-1639-116-546-150-757-211-1335-21-198-28-240-29-184-1,18-10,168-21,335-61,938-107,1798-120,2250-6,225-16,377-26,439-49,290-181,541-354,671-51,38-89,57-175,84-60,20-139,40-175,47-61,11-122.21374,72.11684-86.21374,72.11684c25,0-3-178.57543,0-162.57543C5391.78626,8566.54141,5419,8548,5514,8520c141-40,279-120,358-209c90-99,160-272,199-486c17-95,21-180,29-635c17-954,26-1117,117-2060l67-685l4-865c2-574,0-941-8-1090-9-173-36-422-118-1078L6055,560h108c59,0,107,3,107,8c0,4,43,407,94,897l94,890l152,475c362,1135,784,2498,911,2945c128,448,203,840,242,1263c8,84,13.62254,199.11684,15.62254,201.11684q2,3-91.62254-19L7687,7048c-20-374-140-871-486-2008-219-722-747-2399-758-2410-7-6,4,682,17,1080c37,1139,94,1667,285,2665c147,767,298,1345,555,2130c210,640,295,1031,307,1405v294.94734" transform="translate(-39.79023-76.31155)"/><path d="M5402,8650c25,0,181,47,269,81c100,39,149,82,149,132c0,31-6,40-45,67-33,23-47,40-55,69-7,26-35,66-80,116l-70,77v117c0,138-14,177-81,235-57,49-166,102-253,123-56,13-80,15-131,6-71-12-169-58-241-113-81-63-106-70-259-70-159,0-195-12-244-82-35-52-84-98-173-164-132-97-150-173-67-280c59-76,75-102,66-110-4-4-34-11-67-16-70-9-116-30-124-55-3-10-10-58-15-108-6-49-17-137-26-195-38-241,4-292,195-239c41,11,123,40,183,65c167,68,204,60,194-45-2-32-1-64,3-70c11-19,77-24,160-12c108,15,141,27,208,71c58,39,61,40,149,40c107,0,119,8,130,91l8,54h77c67,0,80,3,102,24c14,13,28,36,31,52" transform="translate(-40.16769-32.19471)" fill="#92499c"/><path d="M7529,10936c58-55,50-135-21-212-78-85-279-139-373-100-38,16-50,34-60,93-10,61,9,106,63,154c87,77,152,99,279,96c75-2,84-4,112-31ZM5087,8851c107-49,106-181-4-282-112-103-252-106-313-7-28,46-25,95,11,166c32,66,85,117,134,131c52,16,128,12,172-8Z" transform="translate(-40.16769-32.19471)" fill="#fff"/></g></svg>
