<?xml version="1.0" standalone="no"?>
<!DOCTYPE svg PUBLIC "-//W3C//DTD SVG 20010904//EN"
 "http://www.w3.org/TR/2001/REC-SVG-20010904/DTD/svg10.dtd">
<svg version="1.0" xmlns="http://www.w3.org/2000/svg"
 width="1299.000000pt" height="1299.000000pt" viewBox="0 0 1299.000000 1299.000000"
 preserveAspectRatio="xMidYMid meet">

<g transform="translate(0.000000,1299.000000) scale(0.100000,-0.100000)"
fill="#000000" stroke="none">
<path d="M7515 12119 c-44 -4 -134 -17 -201 -28 -67 -12 -135 -21 -152 -21
-42 0 -84 -44 -112 -119 -12 -34 -27 -64 -32 -67 -5 -3 -48 0 -96 7 -155 21
-203 -7 -260 -153 -43 -111 -61 -127 -153 -139 -94 -12 -157 -43 -242 -120
-82 -74 -103 -112 -112 -204 -10 -98 -23 -117 -109 -164 -90 -50 -131 -95
-141 -151 -10 -60 4 -204 27 -280 18 -58 29 -74 107 -150 137 -137 205 -158
430 -141 195 16 260 14 300 -7 19 -9 36 -22 39 -29 2 -6 -21 -39 -52 -72 -72
-79 -88 -112 -94 -197 -4 -68 -3 -72 26 -105 l30 -34 203 -7 c112 -4 222 -10
244 -14 37 -5 45 -2 96 40 79 65 168 116 202 116 l30 0 -6 -162 c-11 -293 -36
-413 -204 -998 -155 -539 -240 -816 -298 -966 -95 -245 -180 -589 -404 -1639
-116 -546 -150 -757 -211 -1335 -21 -198 -28 -240 -29 -184 -1 18 -10 168 -21
335 -61 938 -107 1798 -120 2250 -6 225 -16 377 -26 439 -49 290 -181 541
-354 671 -51 38 -89 57 -175 84 -60 20 -139 40 -175 47 -61 11 -104 28 -68 28
25 0 181 47 269 81 100 39 149 82 149 132 0 31 -6 40 -45 67 -33 23 -47 40
-55 69 -7 26 -35 66 -80 116 l-70 77 0 117 c0 138 -14 177 -81 235 -57 49
-166 102 -253 123 -56 13 -80 15 -131 6 -71 -12 -169 -58 -241 -113 -81 -63
-106 -70 -259 -70 -159 0 -195 -12 -244 -82 -35 -52 -84 -98 -173 -164 -132
-97 -150 -173 -67 -280 59 -76 75 -102 66 -110 -4 -4 -34 -11 -67 -16 -70 -9
-116 -30 -124 -55 -3 -10 -10 -58 -15 -108 -6 -49 -17 -137 -26 -195 -38 -241
4 -292 195 -239 41 11 123 40 183 65 167 68 204 60 194 -45 -2 -32 -1 -64 3
-70 11 -19 77 -24 160 -12 108 15 141 27 208 71 58 39 61 40 149 40 107 0 119
8 130 91 l8 54 77 0 c67 0 80 3 102 24 14 13 28 36 31 52 8 35 24 37 119 9
141 -40 279 -120 358 -209 90 -99 160 -272 199 -486 17 -95 21 -180 29 -635
17 -954 26 -1117 117 -2060 l67 -685 4 -865 c2 -574 0 -941 -8 -1090 -9 -173
-36 -422 -118 -1078 l-107 -852 108 0 c59 0 107 3 107 8 0 4 43 407 94 897
l94 890 152 475 c362 1135 784 2498 911 2945 128 448 203 840 242 1263 8 84
17 155 19 157 2 3 126 17 276 32 149 15 270 28 268 30 -2 2 -91 15 -197 29
-107 14 -196 27 -198 29 -14 15 40 88 148 199 l126 129 -48 -6 c-77 -11 -126
-42 -219 -140 l-87 -92 -1 50 c0 62 -43 227 -71 272 -29 46 -75 79 -130 93
-39 10 -52 9 -77 -4 -37 -19 -52 -44 -67 -111 -14 -60 -32 -66 -99 -36 l-46
20 -19 -27 c-46 -65 -66 -217 -37 -285 17 -42 76 -93 140 -123 28 -13 46 -24
41 -24 -27 0 -338 -50 -343 -54 -3 -4 120 -6 273 -6 l278 0 -6 -122 c-20 -374
-140 -871 -486 -2008 -219 -722 -747 -2399 -758 -2410 -7 -6 4 682 17 1080 37
1139 94 1667 285 2665 147 767 298 1345 555 2130 210 640 295 1031 307 1405
l6 176 158 83 c125 66 177 100 242 158 71 64 108 87 284 174 256 129 303 170
233 206 -31 16 -185 17 -334 2 -61 -6 -140 -9 -176 -7 l-65 3 38 17 c56 25
267 76 385 92 81 11 110 20 136 39 37 29 65 79 73 135 9 58 39 97 122 159 43
32 86 63 96 68 16 10 13 15 -31 47 -72 52 -113 70 -155 70 -41 -1 -131 -40
-219 -96 -30 -19 -56 -34 -56 -33 -1 1 35 78 81 170 99 202 148 338 149 420 1
69 -9 80 -109 116 -48 17 -74 33 -100 64 -19 22 -35 44 -35 49 0 4 -13 14 -30
23 -103 53 -209 -28 -423 -325 -17 -24 -17 -24 -12 -3 11 40 8 207 -5 253 -16
62 -52 114 -92 132 -42 20 -151 27 -253 17z m14 -1183 c58 -55 50 -135 -21
-212 -78 -85 -279 -139 -373 -100 -38 16 -50 34 -60 93 -10 61 9 106 63 154
87 77 152 99 279 96 75 -2 84 -4 112 -31z m-2442 -2085 c107 -49 106 -181 -4
-282 -112 -103 -252 -106 -313 -7 -28 46 -25 95 11 166 32 66 85 117 134 131
52 16 128 12 172 -8z"/>
</g>
</svg>
