<?xml version="1.0" encoding="UTF-8" standalone="no"?>
<svg
   xmlns:dc="http://purl.org/dc/elements/1.1/"
   xmlns:cc="http://creativecommons.org/ns#"
   xmlns:rdf="http://www.w3.org/1999/02/22-rdf-syntax-ns#"
   xmlns:svg="http://www.w3.org/2000/svg"
   xmlns="http://www.w3.org/2000/svg"
   viewBox="0 0 831.50665 831.50665"
   height="831.50665"
   width="831.50665"
   xml:space="preserve"
   id="svg2"
   version="1.1"><metadata
     id="metadata8"><rdf:RDF><cc:Work
         rdf:about=""><dc:format>image/svg+xml</dc:format><dc:type
           rdf:resource="http://purl.org/dc/dcmitype/StillImage" /></cc:Work></rdf:RDF></metadata><defs
     id="defs6" /><g
     transform="matrix(1.3333333,0,0,-1.3333333,0,831.50667)"
     id="g10"><g
       transform="scale(0.1)"
       id="g12"><path
         id="path14"
         style="fill:#231f20;fill-opacity:1;fill-rule:nonzero;stroke:none"
         d="m 3348.83,1400.77 c -0.23,-4.29 -18.01,32.98 -117.12,42.79 0.63,6.56 1.22,12.77 1.85,19.44 55.2,29.42 109.41,48.08 154,48.08 21.81,0 57.58,-3.14 99.04,-9.54 -65.13,-49.14 -140.03,-85 -137.77,-100.77 z m -558.15,145.36 c -235.77,58.89 -322.13,217.44 -247.72,277.57 30.3,-37.38 49.98,-73.74 51.66,-104.31 315.31,192.31 362.04,-114.34 456.65,-174.78 4.82,-3.07 8.31,-4.55 11.58,-5.77 4.96,-11.63 10.84,-24.91 17.9,-40.3 -1.17,-20.44 -2.31,-40.74 -3.31,-59.96 -15.67,-1.97 -32.54,-4.59 -50.05,-7.53 -81,82.32 -206.74,147.85 -236.71,115.08 z m 229.28,420.34 c 33.51,50.21 29.94,151.24 108.72,203.24 -14.64,-180.33 -27.37,-349.63 -37.26,-498.26 -76.38,151.79 -102.51,248.49 -71.46,295.02 z m 322.09,-230.89 c 0,-40.62 -24.06,-99.68 -99.35,-173.63 12.42,135.89 25.88,289.58 39.99,454.11 280.8,-137.64 59.36,-215.49 59.36,-280.48 z m 1403.57,-342.79 c -71.2,-189.14 -577.58,93 -503.73,242.04 59.21,20.56 108.7,27.27 134.35,9.1 40.77,86.59 547.39,290.49 576.51,154.42 128.12,53.61 306.98,-65.68 516.63,181.71 -186.36,169.07 -623.13,218.54 -826.95,226.79 0,-107.21 -477.54,-78.34 -628.96,-45.36 0,-210.72 -497.55,-145.84 -730.28,-139.64 66.62,776.92 147.35,1788.1 198.69,2270.26 22.21,-1.39 47.72,4.18 61.47,16.22 25,21.87 56.25,259.37 46.88,396.87 25,-34.37 93.75,-425 93.75,-462.5 0,-37.5 46.87,-25 62.5,-12.5 15.62,12.5 25,125 25,218.75 12.5,-43.75 78.12,-134.37 112.5,-148.62 34.37,-14.26 131.25,-13.88 93.75,14.25 -37.5,28.12 -115.63,215.62 -143.75,250 21.87,-6.25 46.87,9.37 28.12,28.12 -18.75,18.75 -46.87,84.38 -87.5,134.38 143.75,-46.88 312.5,-406.25 330.69,-421.88 18.19,-15.62 72.44,9.38 63.06,31.25 -9.37,21.88 -103.12,181.25 -140.62,243.75 46.87,-15.62 253.12,-171.87 275,-181.25 21.87,-9.37 43.75,6.25 46.87,40.63 3.13,34.37 -218.75,234.37 -325,300 171.88,-21.88 375,-256.25 400,-268.75 25,-12.5 31.25,21.87 25,40.62 -6.25,18.75 -75,65.63 -146.87,134.38 71.87,-40.63 171.87,-90.63 181.25,-93.75 9.37,-3.13 28.12,9.37 28.12,25 0,15.62 6.25,28.12 -81.25,71.87 15.63,18.75 31.25,12.5 18.75,37.5 -12.5,25 -47.92,50 -135.42,89.58 45.84,-6.25 143.75,0 166.67,8.34 22.92,8.33 8.33,31.25 6.25,50 -2.08,18.75 -14.58,20.83 -102.08,33.33 0,20.83 0,29.17 -25,39.58 139.58,-4.16 112.5,27.09 106.25,47.92 -6.25,20.83 -208.34,4.17 -208.34,18.75 0,14.58 -118.75,20.83 -289.58,37.5 31.25,12.5 179.17,6.25 202.08,12.5 22.92,6.25 -8.33,41.67 -33.33,50 -25,8.33 -97.92,47.92 -133.33,60.42 18.75,12.5 54.16,33.33 54.16,47.91 0,14.59 -20.83,37.5 -45.83,29.17 -25,-8.33 -85.42,-31.25 -161.6,-38.73 74.4,89.28 100.5,176.3 75.65,195.64 -11.68,9.08 -41.08,10.37 -52.52,-0.11 -83.03,-76.09 -138.88,-43.43 -175.25,-79.81 -1.22,26.99 -33.15,48.01 -58.15,48.01 0,18.75 6.25,50 -21.88,62.5 -28.12,12.5 -46.87,-6.25 -71.87,-40.62 -12.5,12.5 -31.25,9.37 -43.07,-15.63 -11.81,-25 -44.43,12.5 -63.18,31.25 -18.75,18.75 -34.38,12.5 -75,-28.12 0,21.87 -25,9.37 -53.13,21.87 -28.12,12.5 -53.12,6.25 -56.25,-53.12 -3.12,28.12 -18.75,37.5 -28.12,53.12 -9.38,15.63 -78.13,28.13 -65.63,3.13 12.5,-25 9.38,-43.75 -12.5,-71.88 -25,25 -103.12,71.88 -140.62,86.79 -37.5,14.91 -62.5,-5.54 -43.75,-18.04 18.75,-12.5 65.62,-68.75 93.75,-109.37 -93.75,-3.13 -231.25,100 -250,117.32 -18.75,17.32 -50,10.8 -53.13,-7.95 -3.12,-18.75 28.13,-65.62 109.38,-140.62 -31.25,18.75 -125,62.5 -162.5,71.87 -37.5,9.38 -46.88,-3.12 -40.63,-28.12 6.25,-25 62.5,-43.75 156.25,-90.63 -31.25,6.25 -96.87,25 -131.25,28.13 -34.37,3.12 -84.37,-9.38 -81.25,-25 3.13,-15.63 31.25,-28.13 87.5,-43.75 -46.87,6.25 -56.25,-12.5 -50,-40.63 -46.87,3.13 -81.25,3.13 -103.12,-9.37 -21.88,-12.5 -3.13,-56.25 -3.13,-81.25 0,-25 168.75,-50 287.5,-40.63 -28.12,-9.37 -209.37,-53.12 -265.62,-65.62 -56.25,-12.5 -87.5,-84.38 -43.75,-78.13 43.75,6.25 159.37,34.38 256.25,53.13 -37.5,-12.5 -143.75,-50 -165.63,-65.63 -21.87,-15.62 -15.62,-68.75 18.75,-71.87 34.38,-3.13 96.88,9.37 168.75,3.12 -21.87,-15.62 -71.87,-28.12 -81.25,-50 -9.37,-21.87 6.25,-71.87 34.38,-71.87 28.12,0 181.25,15.62 271.87,50 -18.75,-31.25 -140.62,-134.38 -156.25,-156.25 -15.62,-21.88 6.25,-56.25 40.63,-59.38 34.37,-3.12 87.5,53.13 256.25,200 -18.75,-43.75 106.25,-6.25 159.37,59.38 6.25,-40.63 -168.75,-278.13 -175,-371.88 -2.32,-34.86 59.38,-53.12 78.13,-46.87 16.49,5.49 90.96,112.47 151.19,201.96 -65.44,-410 -171.4,-1445.62 -239.4,-2271.32 -207.31,66.22 -400.43,30.17 -278.03,213.56 -173.01,41.5 -716.91,134.39 -648.57,236.78 -209.85,90.39 -741.23,133.83 -1225.084,-35.26 411.794,-211.82 636.494,-98.86 730.934,-211.82 277.96,-20.58 436.36,-268.26 422.09,-370.6 102.73,13.7 309.58,-114.8 406.98,-233.65 -97.36,-31.92 -210.67,-63.4 -437.28,183.4 102.74,-103.13 -363.83,-246.92 -320.58,-117.06 C 1159.7,1781.78 778.336,1604.24 560.977,1204.86 c 681.303,-73.78 669.243,193.33 962.693,144.7 171.83,100.46 269.58,36.66 143.11,-114.57 107.6,109 492.34,95.95 883.97,-0.79 118.83,256.92 136.98,54.83 445.56,19.74 21.77,-9.58 46.14,-20.25 72.88,-31.88 -1.2,-73.07 0.55,-122.03 6.16,-137.69 h 118.55 c 9.01,69.04 20.15,174.82 32.81,306.44 15.31,-1.59 35.48,-3.88 62.34,-7.03 -131.31,-139.96 480.63,-211.71 101.17,-299.41 247.15,-25.15 746.16,4.77 1022.59,-56.4 -291.89,-34.29 537.14,-131.708 440.22,-275.822 132.32,63.903 10.73,-240.179 577.64,36.903 -176.53,204.621 -306.82,440.969 -685.05,603.739" /></g></g></svg>