<!--?xml version="1.0" encoding="utf-8"?-->
<!-- Generator: Adobe Illustrator 22.1.0, SVG Export Plug-In . SVG Version: 6.00 Build 0)  -->
<svg version="1.1" id="_x35_" xmlns="http://www.w3.org/2000/svg" xmlns:xlink="http://www.w3.org/1999/xlink" x="0px" y="0px" viewBox="0 0 410.651 800" style="width: 257px;" xml:space="preserve">
<style type="text/css">
	.st0{fill:#040000;}
</style>
<g>
	<path class="st0" d="M382.305,345.5c-34.617-17.295-37.851-22.701-61.626-21.085c-23.777,1.616-69.738,10.27-80.022,14.061
		c-10.258,3.778-29.714,8.642-34.591,2.16c-4.85-6.494-22.715-81.638-19.456-94.069c3.234-12.431,5.408-15.679,7.024-16.222
		c1.618-0.53,19.986,4.32,29.74-3.247c9.728-7.568,53.516-57.307,34.592-65.96c-18.926-8.654-47.579,22.159-60.541,26.492
		c-12.988,4.333-46.492,15.135-46.492,10.271c0-4.864,9.728-10.814,9.728-14.048c0-3.247,0.531-7.567,5.408-10.814
		c4.85-3.248,52.958-33.517,64.86-46.506c11.901-12.96,28.122-43.244,30.269-49.725c2.174-6.494,33.53-47.048,27.567-68.678
		c-4.85-10.257-10.258-5.937-10.787,0.558c-0.557,6.48-5.965,23.245-7.581,27.565c-1.617,4.321-3.261,16.753-8.111,16.222
		c-4.877-0.543-0.529-12.431-5.937-11.901c-5.407,0.543-6.494,8.654-6.494,14.074c0,5.393-3.791,24.306-7.554,31.343
		c-3.79,7.024-12.458,22.172-18.926,29.727c-6.494,7.581-32.999,24.876-44.343,29.209c-11.345,4.321-17.839,5.395-18.926-2.173
		c-1.087-7.555,0.557-18.926-4.85-16.752c-5.406,2.16-5.406,17.838-6.494,27.565c-1.087,9.741-3.234,17.853-11.902,19.469
		c-8.64,1.616-10.257,2.703-9.197,7.024c1.087,4.32-3.234,5.951-4.85,3.234c-1.617-2.691-3.234-4.864-1.617-7.555
		c1.617-2.703,7.555-16.221,7.555-21.628c0-5.408,0-42.184,1.087-46.505c1.086-4.32,5.938-12.962,12.988-18.911
		c7.025-5.951,10.257-11.359,16.194-22.717c5.965-11.331,9.199-18.382,9.199-22.702c0-4.321-6.468-9.728-9.728-2.16
		c-3.234,7.567-12.431,29.197-16.222,33.516c-3.79,4.321-9.728,5.951-14.048,1.618c-4.32-4.321-4.32-8.098-5.963-12.431
		c-1.618-4.321,1.085-10.258-4.321-9.172c-5.406,1.074-0.531,11.875-0.531,22.159c0,10.271,1.617,35.121,0.531,43.787
		c-1.087,8.642,0.556,31.888-2.703,36.764c-3.234,4.864-9.199,3.778-12.431-2.703c-3.234-6.494-3.234-15.135-7.555-12.974
		c-4.347,2.159-4.877,9.728-2.173,15.135c2.703,5.406,5.938,7.024,6.494,14.061c0.529,7.011,1.087,7.555-2.174,10.801
		c-3.234,3.248-5.406,5.408-4.32,8.125c1.086,2.69,4.32,9.184,3.233,13.505c-1.06,4.333-5.938,12.974-5.938,12.974
		c-2.703,1.617-17.838,10.272-21.072,14.062c-3.26,3.791-3.26,10.271-4.347,11.901c-1.06,1.617-35.147,30.27-41.614,32.973
		c-6.494,2.704-16.221,6.48-18.396,11.344c-7.024,3.248-4.32,17.839,5.964,20.557c1.616,4.32,0,7.567,2.147,9.183
		c2.173,1.617,9.197,9.728,17.309,10.272c8.11,0.543,19.455-7.024,24.332-6.482c4.851,0.531,23.777,9.728,40.554,4.864
		c16.752-4.864,19.456-8.11,22.69-2.717c3.234,5.408,17.839,93.526,47.579,124.353c-5.938,21.629-1.087,23.246,4.876,39.467
		c5.938,16.221,32.974,67.048,35.148,77.849c2.147,10.814,4.85,40.541,5.407,53.529c0.531,12.975-3.791,45.404-1.643,54.059
		c2.174,8.654,4.877,41.628,4.877,57.306c0,15.691-2.174,43.258-3.791,47.048c-1.616,3.763-9.171,13.517-9.171,13.517l5.381-1.085
		c0,0-2.147,4.864-0.531,4.864c1.617,0,23.246-4.864,24.333-7.024c1.06-2.174,0.531-10.271,1.616-15.148
		c1.087-4.864-3.233-72.985-2.703-78.392c0.531-5.407,2.703-12.431,2.703-12.431s7.024-57.307,7.555-60.01
		c0.556-2.703,6.494-18.382,5.963-22.702c-0.557-4.335,1.087-38.394,1.087-38.394s14.049-3.234,20.516-2.16
		c6.521,1.087,10.285,36.764,10.285,51.355c0,14.604-3.764,49.738-1.617,61.096c2.174,11.358,5.406,23.789,5.937,29.197
		c0.557,5.407,1.087,32.974,1.643,43.787c0.531,10.814-0.556,24.877-1.087,31.9c-0.557,7.038-4.32,9.185-5.963,11.902
		c-1.617,2.69-14.049,8.655-14.049,8.655l3.791,1.603c0,0,0.531,3.248,12.431,0.544c11.902-2.703,20.543-17.839,19.987-21.072
		c-0.531-3.248,2.73-4.877,2.73-4.877s-0.558-6.176-1.22-14.911c3.579,1.763,12.697-0.317,15.798-2.384
		c3.26-2.16,10.284-9.185,9.728-14.592c-0.531-5.42-1.061-25.963-1.061-31.914c0-5.937-1.616-58.38-1.085-61.083
		c0.529-2.703,3.234-16.221,3.79-20.541c0.53-4.335,1.616-21.099,5.407-30.827c2.067-5.328,7.236-23.485,11.477-39.07
		c-0.901,23.934-2.968,47.433-3.365,52.057c-0.558,5.938,11.344,38.925,14.578,47.579c3.26,8.641,18.395,54.059,18.925,59.996
		c0.531,5.964,1.087,26.506,1.087,29.74c0,3.246-12.431,16.221-12.431,16.221s5.937,4.32,12.962,1.617
		c7.023-2.704,12.431-9.728,11.37-13.519c-1.086-3.777-0.557-36.206-1.616-42.701c-1.087-6.48-20.568-81.094-21.628-85.428
		c-1.087-4.32-0.558-27.565,0.53-29.196c1.087-1.617,19.455-58.38,19.455-58.38s15.824-59.665,16.725-88.862
		c-0.053,14.473,3.976,6.428,6.521-8.441C409.87,420.645,416.895,362.809,382.305,345.5z M311.48,695.287
		c0.531,4.321,0,38.382,0,38.382l-3.234,8.653c0,0-5.937,6.362-8.56,9.502c-1.458-19.27-3.287-46.823-2.253-51.66
		c1.616-7.581,5.406-30.826,5.406-33.53c0-2.703,0.531-36.764,1.087-42.171c0.212-2.253,1.961-9.596,3.817-17.945
		c1.962,12.114,3.949,26.096,4.268,28.76C312.567,639.598,310.951,690.968,311.48,695.287z"></path>
</g>
</svg>
