<!--?xml version="1.0" encoding="utf-8"?-->
<!-- Generator: Adobe Illustrator 22.1.0, SVG Export Plug-In . SVG Version: 6.00 Build 0)  -->
<svg version="1.1" id="_x30_" xmlns="http://www.w3.org/2000/svg" xmlns:xlink="http://www.w3.org/1999/xlink" x="0px" y="0px" viewBox="0 0 800 745.511" style="enable-background:new 0 0 800 745.511;" xml:space="preserve">
<style type="text/css">
	.st0{fill:#040000;}
</style>
<g>
	<path class="st0" d="M247.345,622.097c157.761,8.912,216.028-77.981,236.151-63.097c7.201,6.113,19.072,15.488,25.685,21.887
		c5.347,5.169,3.921,10.57-3.405,13.323c-14.312,5.401-45.335,17.745-51.351,28.635c-12.335,22.334,25.452,60.139,25.452,60.139
		c10.409,11.452,8.164,32.6,0.553,40.006c-7.594,7.415-3.066,17.137,3.546,19.464c7.023,2.478,13.672-3.216,14.51-8.386
		c1.23-7.655-0.143-16.023,7.129-17.895c6.418-1.621,11.568,4.403,13.136,15.195c1.569,10.793,10.748,15.053,17.824,10.436
		c7.575-4.92,4.884-14.642-1.854-18.715c-6.738-4.081-11.318-6.729-11.194-13.608c0.161-8.788,10.534-10.579,19.144-0.535
		c7.237,8.466,18.662,10.837,23.456,2.843c4.315-7.191,1.569-18.234-14.491-18.404c-15.721-0.151-25.132-7.593-22.422-18.091
		c2.156-8.315,8.875-7.139,16.202-8.725c18.751-4.064,5.632-31.985-11.746-18.902c-12.193,9.197-27.236,19.963-36.006,5.846
		l-5.044-9.777c0,0,32.048-7.352,55.95-10.382c23.885-3.039,36.593-25.64,31.085-48.65c-5.027-21.051-35.702-66.538-40.14-73.418
		c52.563-34.873,90.706-152.476,92.739-187.037c0.357-5.989,5.739-9.652,8.556-9.981c19.892-2.345,52.884-10.678,65.539-22.289
		c27.522-25.23,20.534-62.715,37.235-74.38c5.579-3.912,24.242-0.633,33.474,6.497c9.25,7.157,19.517-1.542,20.658-6.844
		c1.516-7.067-3.191-14.901-11.336-14.491c-8.538,0.437-17.45,2.603-20.587-5.027c-2.781-6.729,3.012-13.278,14.526-16.638
		c11.515-3.368,14.723-14.018,8.627-21.042c-6.523-7.468-16.701-3.065-20.106,4.911c-3.405,7.976-5.597,13.341-13.101,14.268
		c-9.606,1.176-13.135-9.838-3.529-20.756c8.092-9.189,8.948-22.004-0.499-25.997c-8.485-3.591-20.087,1.088-17.806,18.627
		c2.21,17.147-4.42,28.554-16.274,27.191c-9.375-1.07-9.144-8.6-11.978-16.31c-7.308-19.793-35.72-1.229-18.786,15.695
		c11.87,11.888,29.766,17.04,27.555,28.59c-2.21,11.541-13.083,49.087-46.093,54.666c-52.171,8.868-46.699-31.352-43.474-52.171
		c4.26-27.449,21.55-60.299,16.72-105.02c-2.924-27.03-34.383-74.754-61.262-93.906c-10.373-7.388-19.018-9.09-30.783-7.344
		c-11.354,1.693-20.39,6.158-27.84,16.416c-20.231,27.841-33.955,87.133-25.881,113.459c8.609,28.038,27.252,65.05,16.256,93.647
		c-6.631,17.245-17.967,22.913-33.528,25.614c-67.678,11.756-36.424-57.233-36.967-51.778c1.177-11.71,20.355-12.406,35.122-20.392
		c21.059-11.371-0.856-37.306-13.501-20.391c-4.937,6.577-6.844,13.85-16.148,12.21c-11.746-2.104-14.848-14.937-7.826-30.729
		c7.185-16.122-2.602-23.929-11.745-22.913c-10.213,1.141-13.047,13.626-7.914,24.758c6.096,13.216-0.436,22.77-9.304,18.902
		c-6.933-3.021-7.495-8.822-8.484-17.432c-0.98-8.609-9.474-15.748-17.86-10.418c-7.861,4.955-7.825,16.087,2.255,22.601
		c10.088,6.505,13.751,14.437,9.171,20.088c-5.187,6.408-12.994,1.471-21.158-1.061c-8.207-2.549-14.437,3.458-15.007,10.659
		c-0.428,5.401,6.951,16.666,17.824,12.459c10.89-4.189,29.142-1.167,33.385,4.17c12.673,15.944-25.757,62.679,17.084,77.144
		c21.13,7.138,44.8,17.726,41.316,30.675c0,0,24.517,47.921-33.91,84.834c-1.694-6.487-5.677-22.074-7.754-26.45
		c-10.16-21.354-34.222-30.988-54.738-18.35c-20.498,12.611-50.077,27.004-50.077,27.004l-2.21-10.766
		c-2.031-16.487,21.541-24.036,36.798-24.543c21.745-0.714,14.437-30.684-2.709-22.085c-6.693,3.369-11.203,8.503-18.092,3.387
		c-8.698-6.47-6.016-18.172,6.095-28.162c12.406-10.231,7.602-20.543-0.249-23.404c-8.769-3.252-16.149,5.776-16.479,16.916
		c-0.401,13.226-9.598,18.323-15.231,11.595c-4.42-5.285-2.523-10.222,0.16-17.619c2.691-7.397-1.319-16.648-10.285-15.739
		c-8.421,0.873-12.913,9.928-7.352,19.322c5.552,9.375,5.321,17.307-0.687,20.06c-6.835,3.11-10.997-4.269-16.79-9.455
		c-5.49-4.893-13.155-3.048-16.541,2.575c-2.531,4.216-1.114,16.372,9.455,17.379c10.562,0.989,21.434,18.555,20.587,32.592
		c0,0-0.525,58.312,23.091,67.954c11.524,4.696,37.217-4.901,51.743-9.687c7.451-2.451,11.943,0.864,11.025,8.225
		c-1.301,10.453-4.403,26.042-5.82,34.615c-0.142,0.864,0.143-0.855,0,0c-23.242,66.261-97.775,86.072-157.975,74.977
		C141.479,512.585-8.181,364.743,70.298,193.168c12.78-21.897,9.126-45.629-16.434-9.126
		c-25.542,36.504-83.951,153.324-29.196,284.732C79.424,600.191,185.353,618.594,247.345,622.097z" style="fill: rgb(68, 43, 72);"></path>
</g>
</svg>
