<!--?xml version="1.0" encoding="utf-8"?-->
<!-- Generator: Adobe Illustrator 22.1.0, SVG Export Plug-In . SVG Version: 6.00 Build 0)  -->
<svg version="1.1" id="_x33_" xmlns="http://www.w3.org/2000/svg" xmlns:xlink="http://www.w3.org/1999/xlink" x="0px" y="0px" viewBox="0 0 436.369 800" style="enable-background:new 0 0 436.369 800;" xml:space="preserve">
<style type="text/css">
	.st0{fill:#040000;}
</style>
<g>
	<path class="st0" d="M426.054,167.668c-6.785,0.346-13.854,2.065-16.344-3.991c-2.208-5.342,2.384-10.543,11.526-13.21
		c9.149-2.675,11.696-11.123,6.849-16.706c-5.171-5.93-13.252-2.427-15.955,3.899c-2.711,6.332-4.451,10.592-10.409,11.328
		c-7.62,0.934-10.429-7.812-2.787-16.479c6.417-7.295,7.097-17.477-0.411-20.647c-6.729-2.844-15.942,0.87-14.137,14.795
		c1.769,13.613-3.509,22.67-12.92,21.588c-7.444-0.85-7.26-6.828-9.51-12.949c-5.802-15.721-28.352-0.976-14.915,12.46
		c9.439,9.439,23.633,13.529,21.878,22.699c-1.755,9.164-10.372,38.973-36.588,43.403c-41.421,7.04-40.246-15.199-43.876-31.537
		c-4.345-19.564,25.317-47.831,31.062-83.082c3.467-21.297-10.557-64.458-27.085-84.794c-6.382-7.839-12.645-10.967-22.012-12.113
		c-9.05-1.104-16.911,0.411-24.779,6.694c-21.354,17.038-51.27,62.322-50.641,84.186c0.673,23.265,6.517,54.333,0,80.415
		c-3.559,14.236-18.078,32.633-30.432,34.777c-53.739,9.332-31.098-38.909-31.53-34.594c0.934-9.29,16.161-9.842,27.886-16.182
		c16.719-9.029-0.68-29.619-10.72-16.188c-3.92,5.214-5.434,10.995-12.821,9.7c-9.325-1.67-11.795-11.866-6.205-24.404
		c5.696-12.8-2.08-18.998-9.333-18.192c-8.109,0.906-10.359,10.819-6.283,19.649c4.84,10.501-0.347,18.086-7.38,15.008
		c-5.512-2.392-5.958-6.998-6.736-13.833c-0.793-6.834-7.529-12.502-14.187-8.271c-6.234,3.934-6.212,12.772,1.79,17.937
		c8.01,5.172,10.918,11.47,7.288,15.956c-4.132,5.087-10.324,1.167-16.812-0.842c-6.51-2.023-11.449,2.738-11.909,8.462
		c-0.339,4.288,5.519,13.239,14.152,9.892c8.646-3.333,23.144-0.927,26.512,3.311c10.055,12.658-20.462,49.763,13.557,61.24
		c16.777,5.675,54.822,5.625,52.063,15.906c0,0,8.377,98.599-14.222,148.61c-3.956-3.566-13.409-12.156-16.699-14.151
		c-16.062-9.714-36.227-5.575-44.3,11.76c-8.081,17.322-21.39,39.786-21.39,39.786l-6.17-6.162
		c-8.554-10.048,3.771-25.353,13.664-32.357c14.101-9.969-3.843-26.647-11.449-13.443c-2.965,5.151-3.708,10.528-10.508,10.146
		c-8.604-0.488-11.937-9.418-8.264-21.333c3.743-12.198-3.948-16.939-10.402-15.411c-7.231,1.684-8.179,10.897-3.531,18.425
		c5.512,8.936,1.649,16.338-5.031,14.342c-5.236-1.578-6.134-5.675-7.585-11.76c-1.45-6.078-8.159-10.451-13.706-5.93
		c-5.201,4.26-4.217,12.22,3.573,16.02c7.783,3.785,11.095,9.142,8.313,13.599c-3.17,5.045-9.155,1.975-15.261,1.075
		c-5.774-0.848-10.048,3.722-9.835,8.93c0.162,3.906,6.417,11.335,13.862,7.387c7.436-3.962,22.316,2.929,27.892,12.609
		c0,0,25.14,38.874,45.001,34.947c9.694-1.924,22.529-19.522,30.071-29.039c3.864-4.883,8.286-4.642,10.897,0.63
		c3.707,7.5,19.897,36.503,22.706,42.807c0.276,0.637,17.385,41.294-13.04,121.715c-11.972,31.635-20.781,115.546-2.173,156.492
		c25.012,55.042,89.712,31.246,93.752,23.923c4.783-7.542-5.292-6.297-28.239-8.647c-37.437-3.841-38.173-59.598-13.167-122.168
		c34.593-86.549,28.069-143.062,74.916-166.759c7.451,0.898,19.409,1.932,26.598,3.276c5.788,1.097,7.217,5.293,3.559,10.33
		c-7.132,9.828-22.287,31.571-21.516,41.421c1.578,20.193,43.154,28.727,43.154,28.727c11.902,3.035,19.649,18.043,17.852,26.279
		c-1.797,8.23,5.456,12.694,10.862,11.343c5.731-1.415,7.648-8.094,5.943-11.887c-2.526-5.618-7.09-10.564-3.093-14.986
		c3.538-3.871,9.594-2.138,15.347,4.337c5.752,6.467,13.699,5.279,16.38-0.877c2.859-6.567-3.17-11.838-9.418-11.597
		c-6.248,0.24-10.437,0.488-13.358-4.125c-3.736-5.901,2.349-11.612,12.446-8.724c8.505,2.448,17.109-0.97,16.798-8.364
		c-0.283-6.651-6.934-12.771-17.654-5.865c-10.479,6.764-19.982,5.958-22.769-2.187c-2.208-6.46,2.766-8.618,6.927-12.863
		c10.656-10.89-10.246-23.668-16.048-7.401c-4.061,11.427-9.326,25.139-21.312,19.613l-7.606-4.281c0,0,18.029-18.878,32.534-31.331
		c14.513-12.461,13.047-32.987-0.651-45.836c-12.531-11.753-52.742-28.494-58.7-31.118c19.6-46.084,22.225-141.322,23.839-168.762
		c0.282-4.755,4.549-7.663,6.785-7.925c15.793-1.86,41.987-8.477,52.041-17.697c21.849-20.031,16.302-49.791,29.555-59.053
		c4.444-3.106,19.253-0.502,26.584,5.158c7.338,5.682,15.502-1.224,16.401-5.434C436.257,173.562,432.514,167.343,426.054,167.668z" style="fill: rgb(68, 43, 72);"></path>
</g>
</svg>
