<!--?xml version="1.0" encoding="utf-8"?-->
<!-- Generator: Adobe Illustrator 22.1.0, SVG Export Plug-In . SVG Version: 6.00 Build 0)  -->
<svg version="1.1" id="_x34_" xmlns="http://www.w3.org/2000/svg" xmlns:xlink="http://www.w3.org/1999/xlink" x="0px" y="0px" viewBox="0 0 433.675 800" style="width: 272px;" xml:space="preserve">
<style type="text/css">
	.st0{fill:#040000;}
</style>
<g>
	<path class="st0" d="M292.23,594.412c-28.718-116.338-6.142-163.995-0.208-185.548c6.62-2.641,17.064-7.225,23.663-9.375
		c5.331-1.72,8.429,1.129,7.669,6.996c-1.472,11.439-4.214,36.46,0.914,44.323c10.505,16.117,49.049,4.314,49.049,4.314
		c11.311-2.883,24.598,6.103,26.843,13.785c2.251,7.682,10.329,8.105,14.214,4.523c4.14-3.797,2.695-10.242-0.451-12.622
		c-4.658-3.535-10.72-5.578-9.396-11.089c1.19-4.839,7.03-6.15,14.766-3.368c7.742,2.775,13.831-1.834,13.26-8.186
		c-0.605-6.775-8.025-8.428-13.125-5.384c-5.101,3.045-8.482,5.155-13.018,2.635c-5.8-3.213-3.32-10.747,6.412-12.931
		c8.206-1.829,13.818-8.596,10.195-14.618c-3.266-5.417-11.593-7.493-17.393,3.146c-5.659,10.411-13.939,14.053-19.974,8.535
		c-4.779-4.375-1.613-8.441-0.081-13.878c3.932-13.925-19.308-15.068-16.741,1.136c1.807,11.379,3.663,25.203-8.852,26.05
		l-8.286-0.107c0,0,6.438-23.946,12.87-40.93c6.425-16.99-4.133-33.436-21.4-37.919c-15.794-4.099-56.945,0.249-63.101,0.767
		c-4.631-47.341-37.496-128.959-47.059-153.255c-1.654-4.214,0.86-8.421,2.681-9.537c12.877-7.904,32.818-24.06,37.805-36.024
		c10.841-25.983-5.82-49.424,1.909-62.691c2.587-4.45,16.399-8.119,24.974-6.156c8.589,1.962,12.87-7.245,11.97-11.231
		c-1.203-5.316-6.909-9.187-12.353-6.324c-5.713,2.998-11.116,7.306-15.68,3.078c-4.033-3.723-2.151-10.041,4.671-15.989
		c6.815-5.955,5.638-14.255-0.766-17.131c-6.822-3.052-12.394,3.192-12.199,9.731c0.195,6.533,0.396,10.901-4.456,13.912
		c-6.197,3.844-12.104-2.567-8.979-13.092c2.628-8.845-0.846-17.891-8.582-17.636c-6.943,0.236-13.394,7.11-6.284,18.395
		c6.95,11.029,6.015,20.935-2.527,23.765c-6.754,2.238-8.979-2.983-13.361-7.359c-11.278-11.237-24.833,10.464-7.884,16.688
		c11.896,4.362,25.768,2.225,27.912,10.827c2.151,8.603,6.606,37.738-14.222,52.019c-32.891,22.596-41.897-6.654-46.279-21.937
		c-5.779-20.136-4.355-48.094-21.828-77.168C158.963,29.985,122.307,7.295,97.844,2.698C88.415,0.938,81.95,2.504,74.462,7.43
		c-7.245,4.752-12.011,10.673-13.865,20.054c-5.021,25.459,4.368,70.381,18.24,85.839c14.773,16.459,39.263,35.889,40.789,58.935
		c0.927,13.905-5.034,21.378-14.826,28.153c-42.597,29.491-43.06-27.623-41.71-23.724c-2.903-8.38,10.007-14.934,17.582-25.075
		c10.814-14.456-12.406-25.263-15.7-9.678c-1.297,6.062-0.296,11.647-7.185,13.475c-8.703,2.279-14.894-5.524-15.088-18.562
		c-0.188-13.308-9.368-15.538-15.303-11.95c-6.62,4.013-4.61,13.462,2.433,19.45c8.354,7.11,6.916,15.72-0.376,15.875
		c-5.706,0.134-7.923-3.656-11.331-9.234c-3.401-5.579-11.472-7.783-15.525-1.479c-3.804,5.887-0.262,13.495,8.703,14.758
		c8.966,1.258,13.98,5.525,12.642,10.841c-1.525,6.028-8.428,5.128-14.819,5.982c-6.418,0.853-8.778,6.929-6.895,12.05
		c1.425,3.831,10.041,9.201,16.15,2.876c6.123-6.317,19.578-10.034,24.169-7.729c13.724,6.902,2.224,51.064,36.131,47.381
		c16.721-1.801,52.025-3.306,59.936,20.337c0,0,25.855,82.068,26.997,127.239c-4.919-1.176-16.714-4.032-20.357-4.2
		c-17.817-0.787-32.744,11.835-31.587,29.961c1.149,18.126,0.275,42.912,0.275,42.912l-7.958-2.331
		c-11.701-4.49-8.387-22.852-3.327-33.202c7.219-14.725-15.33-20.465-15.666-5.995c-0.121,5.646,1.7,10.465-4.14,13.241
		c-7.393,3.508-14.234-2.42-16.6-14.027c-2.433-11.876-10.995-12.326-15.686-8.112c-5.262,4.691-1.855,12.803,5.444,16.963
		c8.663,4.947,8.811,12.877,2.332,14.248c-5.081,1.069-7.696-1.935-11.674-6.344c-3.978-4.416-11.56-5.007-14.127,1.291
		c-2.4,5.914,2.049,12.103,10.269,11.728c8.212-0.39,13.415,2.574,13.119,7.56c-0.35,5.639-6.734,5.8-12.232,7.83
		c-5.209,1.929-6.687,7.682-4.14,11.922c1.909,3.186,10.511,6.539,14.921-0.148c4.395-6.681,19.94-7.708,28.994-2.177
		c0,0,38.651,20.969,53.424,8.656c7.204-6.015,9.899-26.527,11.848-37.892c1.001-5.827,4.799-7.642,9.375-4.436
		c6.506,4.57,15.795,12.145,21.003,16.123c0.524,0.403-0.525-0.396,0,0c35.902,38.921,53.416,112.17,67.275,161.635
		c22.097,78.856,70.958,148.194,111.242,186.234c10.774,10.175,21.985-5.007,9.208-19.43
		C347.784,753.742,308.428,660.034,292.23,594.412z" style="fill: rgb(68, 43, 72);"></path>
</g>
</svg>
