<svg id="esmYFi3woy91" xmlns="http://www.w3.org/2000/svg" xmlns:xlink="http://www.w3.org/1999/xlink" viewBox="0 0 623.63 623.63" shape-rendering="geometricPrecision" text-rendering="geometricPrecision"><g><path d="M544.089844,444.914063l-346.269531-9.367188-33.136719-114.082031l37.042969-93.933594l11.777343-60.519531l204.082032-11.335938l70.507812,48.816407l39.578125,99.863281ZM529.675781,488.59375h-342.65625l10.652344-35.957031l343.117188,9.269531ZM69.859375,428.828125l38.652344-112.195312.117187-.410157l40.148438,11.707032l33.679687,115.96875L169.96875,486.09375L79.109375,470.441406ZM137.632813,214.71875l44.542968,16.199219L150.59375,310.65625l-37.277344-10.851562Zm56.515625-37.394531l-7.160157,37.1875-34.140625-12.410156Zm230.808593-47.683594L203.335938,141.945313L117,193.722656L84.109375,308.9375L43.277344,427.324219l14.550781,65.421875l123.429688,21.277344l365.476562.175781l24.394531-58.535156L552.90625,299.71875L509.019531,187.851563l-84.0625-58.210938" fill="#442b48"/></g></svg>
