<svg id="eRTKXqPrx9n1" xmlns="http://www.w3.org/2000/svg" xmlns:xlink="http://www.w3.org/1999/xlink" viewBox="0 0 831.50665 831.50665" shape-rendering="geometricPrecision" text-rendering="geometricPrecision"><g transform="matrix(1.33333 0 0-1.33333 0 831.507)"><g transform="matrix(.1 0 0 0.1 0 0)"><path d="M1797.46,5048.59c3.42-13.74,15.51-23.48,29.68-23.7c86.22-1.33,378.87-10.29,415.02-70.55c42.47-70.78,171.65,253.05,284.91,238.89c113.24-14.15,192.87-268.97,164.57-424.69-25.26-138.85-184.94-253.08-216.93-288.84-4.09-4.57-6.9-9.73-7.29-15.84-5.13-80.7,184.05-590.85,227.74-610.17c276.06-122.1,467.16-258.35,637.04-541.48c159.63-266.05,119.26-69.6,113.81-44.93-.58,1.7-.98,2.9-1.55,4.61-18.22,39.59-281.15,616.37-253.82,889.7c28.31,283.13,70.78,920.16,608.72,1146.66s665.35,311.44,1019.26,212.35c353.9-99.1,580.41-155.72,679.5-84.94s297.29,14.16,240.66-127.41c-40.05-100.14-94.28-164.86-122.57-194.16-10.46-10.81-11.34-27.46-2.34-39.5c20.93-28,54.13-77,54.13-106.09c0-33.33-78.45-118.96-112.24-154.28-6.3-6.59-9.6-15.32-8.33-24.34c1.53-10.9-3.73-35.38-35.15-90.35-38.74-67.8-64.23-128.96-76.46-160.84-4.94-12.85-.8-27.29,10.39-35.3c35.54-25.47,97.77-85.86-33.03-129.46-169.86-56.62-283.13-169.87-410.53-254.81-127.41-84.94-268.97-99.09-268.97-99.09s396.37,42.46,297.28-99.1c-59.17-84.52-138.52-153.91-192.86-196.1-18.63-14.46-14.62-43.25,6.86-53.01c20.46-9.31,36.09-27.48,30.28-62.33-8.28-49.67-26.24-118.72-39.73-167.49-6.01-21.77,12.66-41.09,35.05-38.13c20.58,2.71,40.86-3.58,47.15-35.04c10.01-50.03-57.8-114.22-98.41-147.54-13.88-11.4-15.1-32.09-2.61-45.01c22.17-22.93,47.67-61.15,30.24-104.73-16.92-42.29-49-109.85-72.08-157.39-9.64-19.85,4.23-41.22,26.07-44.34c24.77-3.54,46.01-24.77,31.85-95.55l-21.61-108.05c-3.21-16.07,6.35-32.05,22.21-36.16c32.51-8.41,79.61-39.91,70.18-153.08-9.22-110.7-84.58-203.37-135.96-254.49-17.7-17.62-9.32-47.86,15.15-52.9c70.48-14.52,164.01-46.03,78.34-103.14-76.31-50.87-111.98-101.75-128.34-134.37-8.49-16.94.46-36.88,18.32-43.24c28.53-10.16,61.03-32.28,25.09-77.2-46.96-58.7-103.65-136.88-121.65-161.85-3.83-5.33-5.75-11.54-5.75-18.11v-122.03c0-13.97-9.28-26.26-22.71-30.1l-51.82-14.8c-14.3-4.09-23.76-17.67-22.62-32.5l7.67-99.68c1.94-25.04-24.93-42.04-46.74-29.58l-.99.57c-20.87,11.92-46.83-3.14-46.83-27.18v-38.12c0-12.8-7.8-24.31-19.68-29.06l-110.59-44.24c-7.04-2.81-12.86-8.04-16.25-14.82-16.77-33.52-77.73-145.53-207.38-286.98-155.73-169.871-254.83-297.281-651.2-297.281-396.38,0-537.94,56.621-665.35-28.309-127.41-84.941-1061.73,14.149-1259.91,14.149-198.19,0-155.72,141.57-99.1,141.57c56.63,0,42.47,70.781,169.88,99.09c127.4,28.312,254.81,56.633,353.91,70.781c56.6,8.09,131.67,11.559,185.65,13.039c26.83.742,40.27,32.653,22.12,52.43L2066.09,1038.51c-5.13,5.6-12.04,9.14-19.6,9.96-64.45,6.96-376.48,39.72-427.21,27.04-23.39-5.85-58.85,10.04-92.43,30.71-48.5,29.85-52.12,99.09-7.17,134.05l38.65,30.05c3.2,1.71,6.34,3.37,9.56,5.07l60.24,19.54c0,0,12.39,10.62,111.48,10.62c39.39,0,68.72,1.67,89.75,3.7c21.89,2.1,34.77,25.31,24.62,44.83-44.39,85.5-151.2,301.37-206.38,500.03-61.69,222.05-101.87,390.35-111.18,429.96-1.4,5.96-4.29,10.79-8.9,14.83-53.88,47.28-411.25,366.28-502.8,588.62-99.099,240.66-92.021,168.1-176.962,238.89-77.606,64.67-184.766,130.83-202.676,141.76-1.777,1.39-3.269,2.55-5.047,3.94l-41.777,40.1l15.926,28.31-16.914,59.19c-5.711,20,9.296,39.91,30.097,39.91h29.289c0,0-141.562,155.72-14.152,184.03c127.394,28.31,212.336,212.34,382.216,28.31c152.08-164.76,258.78-238.74,279.46-252.44c2.67-1.24,5.19-2.42,7.86-3.66l59.38-18.28c31.19-9.59,54.42,28.98,31.34,52.06l-178.25,178.25c-1.08,1.09-1.7,2.27-2.84,3.27-150.95,131.05-296.049,399.54-296.049,522.12c0,127.4,42.469,240.65,212.349,467.16c169.87,226.5,212.34,311.43,254.81,339.75c91.98,61.31,89.11,56.3,104.4,93.79c9.75,16.21,54.07,142.43,63.81,158.65l79.53,96.16c41.84,24.22,103.7-27.29,115.43-74.19l41.51-166.01" fill="#442b48"/></g></g></svg>
