<?xml version="1.0" encoding="UTF-8" standalone="no"?>
<!-- Created with Inkscape (http://www.inkscape.org/) -->

<svg
   version="1.1"
   id="svg2"
   width="831.50665"
   height="831.50665"
   viewBox="0 0 831.50665 831.50665"
   sodipodi:docname="149786.eps"
   xmlns:inkscape="http://www.inkscape.org/namespaces/inkscape"
   xmlns:sodipodi="http://sodipodi.sourceforge.net/DTD/sodipodi-0.dtd"
   xmlns="http://www.w3.org/2000/svg"
   xmlns:svg="http://www.w3.org/2000/svg">
  <defs
     id="defs6" />
  <sodipodi:namedview
     id="namedview4"
     pagecolor="#ffffff"
     bordercolor="#000000"
     borderopacity="0.25"
     inkscape:showpageshadow="2"
     inkscape:pageopacity="0.0"
     inkscape:pagecheckerboard="0"
     inkscape:deskcolor="#d1d1d1" />
  <g
     id="g8"
     inkscape:groupmode="layer"
     inkscape:label="ink_ext_XXXXXX"
     transform="matrix(1.3333333,0,0,-1.3333333,0,831.50667)">
    <g
       id="g10"
       transform="scale(0.1)">
      <path
         d="m 4959.9,2077.49 -194.74,1408.43 c 310.95,64.21 544.63,-89.24 645.71,-289.05 199.61,-394.25 -72.47,-833.06 -450.97,-1119.38 z m 681.25,1235.92 c -170.02,335.89 -529.89,498.7 -911.34,428.57 l -21.29,154.11 c 0,0 -655.47,55.65 -995.69,55.65 v 232.91 c -553.71,0 -999.61,-198.81 -995.91,-288.56 L 2511.17,2407.32 865.941,3504.09 H 579.418 L 2403.54,1628.4 2354.42,1272.46 c 8.59,-132.73 616.6,-239.11 1358.2,-239.07 741.8,-0.04 1350,106.34 1358.61,239.07 l -71.89,519.91 c 7.13,3.12 14.06,6.65 20.8,11.14 514.55,345.61 906.16,946.53 621.01,1509.9"
         style="fill:#211a19;fill-opacity:1;fill-rule:nonzero;stroke:none"
         id="path12" />
    </g>
  </g>
</svg>
