<svg id="e8vm01YuZDK1" xmlns="http://www.w3.org/2000/svg" xmlns:xlink="http://www.w3.org/1999/xlink" viewBox="0 0 1299 1299" shape-rendering="geometricPrecision" text-rendering="geometricPrecision"><g transform="matrix(.1 0 0-.1 0 1299)"><path d="M2868,9620c-161-121-313-346-431-635-42-103-130-356-139-400-3-14-27,24-76,120-39,77-71,138-71,135-1-3,23-97,53-210c41-159,51-212,44-235-23-84-81-386-108-571s-80-475-97-528c-4-13-30,45-80,178l-74,198-9,202c-9,183-7,470,5,636c5,59,4,63-10,46-24-32-72-155-110-286-20-69-39-131-41-139-3-9-34,35-73,100-37,63-96,159-131,214s-90,150-122,210c-32,61-58,105-58,99c0-34,190-570,308-864l50-126-5-126-6-127-73,123c-134,226-297,422-430,516l-49,34l57-55c102-100,184-249,252-454c57-172,87-321,131-650c32-239,83-477,151-701l34-113-25-88c-63-215-95-466-104-808-6-236-6-238-14-125-19,273-70,578-148,885-64,250-276,872-370,1087-62,142-148,261-233,321l-29,21l27-45c48-79,173-332,195-398c73-213,82-322,84-1017c2-559,1-586-22-774-20-159-25-242-25-450-1-393,42-636,156-882l41-88h5128h5128l5,43c80,591,139,827,390,1562c219,643,294,1012,283,1404-4,161-8,188-41,321-20,80-40,179-44,220l-8,75-12-80c-7-43-17-168-22-276-20-390-72-562-332-1104-72-148-188-389-258-535s-138-293-150-328c-13-34-25-61-27-59-2,3,4,58,13,123c12,83,18,203,19,399l3,280l42,165c51,199,123,423,194,608c30,75,103,288,164,472c113,344,181,517,259,653c24,44,43,81,40,83-7,8-182-181-247-266-172-225-296-484-451-939-40-117-74-210-76-205-1,5-16,61-32,125s-50,167-76,229l-48,112l23,57c80,199,228,469,310,566l34,40-35-30c-121-108-268-243-356-328l-101-99-53,79c-49,73-197,270-253,338l-25,30l29-75c15-41,45-149,65-240c21-91,45-196,55-235l17-70-62-80c-88-115-137-189-182-280-68-137-95-232-122-445l-18-135-12,60c-31,154-126,518-177,676-56,174-56,174-50,269c10,164,34,247,101,347c171,258,291,400,514,608c155,144,265,261,333,355c35,48,30,46-67-35-33-28-172-139-310-247-137-108-280-222-317-253-38-31-68-55-68-53c0,3,33,105,74,229c124,375,265,682,444,963c42,67,43,68,13,47-53-38-236-217-326-321-328-373-574-781-625-1035-6-33-14-71-16-84-4-20-11-14-49,47-23,39-107,157-185,262-181,243-239,343-286,484-20,61-40,115-44,119-4,5-10-6-13-22l-6-31-102,110c-55,61-157,161-225,222s-124,118-124,126c0,58,99,358,165,498c24,52,42,94,40,94s-33-37-68-82c-110-142-187-280-250-449-93-247-131-480-172-1039-10-124-18-226-19-228-2-1-13,37-26,85-13,49-30,104-39,123-16,35-16,33-19-90-2-87,5-178,21-302l23-178-28-167c-40-235-174-830-177-784-1,8,6,80,14,160c41,410,58,999,35,1232-21,212-61,385-116,505l-27,59-13-102c-14-115-35-222-105-544-29-135-57-301-69-410-20-174-61-440-78-503-7-25-11-14-31,75-42,194-111,448-172,637-218,669-513,1184-880,1537-103,99-187,170-194,164-2-3,46-97,107-209c143-266,364-704,456-900l72-156-20-229c-72-842-38-1216,171-1853c70-210,73-180-32-307-62-76-186-202-192-194-5,5-100,412-132,564-14,66-39,168-55,227-26,94-30,124-30,240c0,73,7,228,15,343c53,762,54,810,20,1000-9,50-20,126-24,170-10,104-15,78-35-160-26-305-51-431-143-709l-56-170-30,70c-55,125-242,486-332,639-92,157-235,385-240,385-2,0,8-26,22-57c14-32,44-110,68-173c23-63,81-216,128-340c148-392,238-689,271-894c12-77,12-95,0-130-16-44-67-128-90-147-22-18-70,33-176,191-50,74-140,194-199,266-183,223-265,348-299,459-8,25-15,153-20,340-8,284-15,376-41,540l-12,70-11-45c-15-55-116-280-127-280-4,0-17,30-29,66s-24,63-27,60c-3-2,0-52,6-110c8-71,9-112,2-124-6-11-30-86-55-168-24-82-47-142-50-134-2,8-37,121-76,250-76,246-275,838-286,849-4,3-4-3-1-14c54-186,95-421,131-760c15-132,38-337,51-455c14-118,30-267,35-330c11-129,13-474,3-534-6-36-9-29-53,110-63,202-102,297-243,589-66,138-142,302-168,365l-48,115-1-60c0-35,15-123,36-210c80-338,97-415,115-520c21-117,44-483,55-875l7-234-44,33c-24,18-96,71-160,118l-117,85-40,136c-140,469-244,1010-258,1352-4,89-1,268,6,420l13,265l53,107c127,255,333,582,500,798c49,63,148,176,219,250c72,74,110,118,85,99-25-20-136-107-248-193-267-207-366-290-488-408l-102-99-6,88c-11,137-25,240-48,337-25,109-30,105-82-53-62-187-121-454-157-711-7-47-18-94-25-105-28-43-135-298-187-445-63-179-114-357-162-567l-33-148-47,100c-62,132-175,403-181,435-4,19,28,81,138,265c80,132,168,277,196,322c29,46,52,85,52,88c0,19-280-206-407-329-56-52-84-74-88-65-60,161-175,483-175,491c0,6,35,49,78,97c79,88,71,87-45-6-23-18-45-33-50-33s-31,55-57,123c-92,235-258,585-313,662-14,18-14,17-7-15c4-19,44-244,89-500l83-465-73-73-72-74-95,97c-79,82-121,115-264,205l-169,107l3,39c6,69,102,435,163,616c62,186,148,397,224,549c25,49,44,89,42,89s-33-22-69-50Zm6167-940c43-69,127-209,186-313l107-187-15-63c-8-34-48-230-89-436-86-430-109-532-165-726-44-153-130-377-189-495l-38-75-7,650c-10,873,5,1231,70,1620c14,83,28,158,31,168c7,23,0,32,109-143ZM2718,7825l80-130-19-25c-10-14-29-38-42-53l-23-28-127,301c-126,299-130,310-111,369c2,7,40-58,84-145c43-88,115-217,158-289Zm508,25c14-72,24-134,22-136-3-2-34,33-70,79l-65,82l39,58c22,32,42,57,44,54c3-2,16-64,30-137Zm-776-156l33-130-63-85-62-84l6,45c3,25,13,113,21,195c15,146,23,201,29,194c1-2,18-63,36-135Zm5093-164c172-431,285-809,346-1148l21-113-44-117c-61-161-70-182-76-182-5,0-104,429-192,835-65,303-127,671-152,915-8,73-4,64,97-190Zm2124-37c31-71,82-191,114-268l57-140-19-30c-60-92-189-314-247-424l-67-126-3,180c-1,99,4,290,13,425c8,135,18,335,22,444l6,199l34-66c18-37,59-124,90-194Zm-7157-32c13-54,19-95,13-104-13-23-178-215-181-212-2,2,1,49,7,105c8,80,15,111,37,148c40,68,94,152,98,152c2,0,14-40,26-89Zm463-43c35-57,81-133,101-170l38-68-64-95c-34-52-65-94-68-95-6,0-163,351-163,366c0,11,82,164,88,164c2,0,32-46,68-102Zm-318-539c14-61,25-112,23-114s-29,21-60,51l-58,55l30,60c17,32,32,59,34,59s16-50,31-111Zm1582-454c-2-5-20,13-41,40-41,56-41,33-4,270l23,150l12-225c7-124,11-229,10-235Zm-586-344c93-217,135-360,111-375-11-7-164,191-272,352-85,126-195,307-262,432l-36,65l56,118l56,118l154-308c84-169,171-350,193-402ZM2521,6308l30-37-28-55c-15-31-30-56-33-56-12,0-39,58-84,178-25,68-46,126-46,130c0,9,125-115,161-160Zm3495-33c54-141,172-386,276-574l74-134-17-91c-42-215-43-422-4-553c20-66,6-45-74,107-186,359-283,653-311,945-12,136-12,469,0,440c5-11,30-74,56-140Zm4921-122l-5-278-97-229c-98-234-196-439-215-451-16-10-12,211,5,331c21,141,74,326,143,507c62,160,164,397,171,397c2,0,1-125-2-277ZM9769,5710c2-321-37-548-126-728l-48-97-2,115c-1,63-7,223-13,355l-12,240l37,145c40,164,61,235,113,400l37,115l6-180c4-99,7-263,8-365Zm435,119c39-196,69-398,90-604l14-139-33-66c-19-36-34-62-35-58c0,4-9,63-20,130-11,68-27,195-35,283-16,167-32,644-22,634c4-3,22-84,41-180ZM1994,5300c-37-135-70-251-74-258-8-15-23,49-46,193-18,115-30,491-19,618l7,86l99-197l99-196-66-246Zm6205,236c-6-21-13-36-16-33s0,22,7,42s14,35,16,33-1-21-7-42Zm3078-763c-3-10-5-4-5,12c0,17,2,24,5,18c2-7,2-21,0-30Z" fill="#442b48"/></g></svg>
