<!--?xml version="1.0" encoding="utf-8"?-->
<!-- Generator: Adobe Illustrator 22.1.0, SVG Export Plug-In . SVG Version: 6.00 Build 0)  -->
<svg version="1.1" id="_x33_" xmlns="http://www.w3.org/2000/svg" xmlns:xlink="http://www.w3.org/1999/xlink" x="0px" y="0px" viewBox="0 0 512.056 800" style="width: 466px;" xml:space="preserve">
<style type="text/css">
	.st0{fill:#040000;}
</style>
<g>
	<path class="st0" d="M508.836,596.259c-96.869-35.395-144.093-198.075-144.093-198.075c35.749,29.176,95.579,32.83,95.579,32.83
		c-110.897-77.346-127.679-183.15-127.679-183.15c32.83,24.822,66.385,16.79,66.385,16.79
		c-58.365-23.346-89.74-123.303-89.74-123.303c21.161,14.596,60.56,16.791,60.56,16.791C291.785,120.916,267.705,4.919,256.032,2
		c-11.668,2.919-35.753,118.916-113.824,156.142c0,0,39.402-2.194,60.559-16.791c0,0-31.375,99.957-89.739,123.303
		c0,0,33.559,8.033,66.393-16.79c0,0-16.782,105.804-127.683,183.15c0,0,59.829-3.654,95.583-32.83
		c0,0-47.223,162.68-144.102,198.075c-18.967,6.936,106.885-10.581,130.239-25.169c0,0-21.891,39.403-39.398,48.152
		c-17.512,8.759,88.829-14.778,116.558-39.575c0,0-7.58,19.771-14.778,27.363c-10.399,10.943-23.26,19.623-16.963,18.052
		c8.594-2.151,31.348-9.855,53.814-23.675l1.817,38.625c0,0-2.884,13.586,0.03,28.183c2.92,14.58-1.101,71.809-1.101,71.809
		s-7.739-1.339-7.739,13.258c0,14.588-14.54,15.167-34.967,23.925c-20.427,8.758,8.75,14.596,37.939,0c0,0,1.917,1.727,4.772,3.23
		c-4.466,6.357-12.765,13.923-5.532,14.822c5.252,0.647,11.268-5.709,15.301-10.978c7.246,3.783,19.326,11.617,31.426,13.354
		c12.355,1.77,8.089-3.084,0.238-10.183c2.285-0.346,3.032-2.652,3.074-5.346c1.231-0.182,1.784-0.536,0.777-1.2
		c-3.277-2.203,17.801,7.972,30.93,11.254c13.138,3.3,27.363,0,19.701-2.177c-7.661-2.193-12.04-5.475-19.701-12.04
		c-1.516-1.304-2.98-3.014-4.409-4.862c10.006-0.743,21.489-2.807,17.671-4.336c-4.168-1.658-18.401-5.227-25.139-6.858
		c-2.815-4.621-5.428-8.914-7.82-11.314c-5.472-5.468-5.472-14.218-7.662-20.79c-2.189-6.564,1.093-62.378-1.096-73.321
		c-1.537-7.678-3.067-33.149-2.708-55.588c22.75,14.157,45.984,22.024,54.695,24.21c6.296,1.571-6.564-7.108-16.964-18.052
		c-7.199-7.592-14.774-27.363-14.774-27.363c27.729,24.797,134.065,48.334,116.553,39.575
		c-17.512-8.749-39.398-48.152-39.398-48.152C401.952,585.679,527.807,603.195,508.836,596.259z"></path>
</g>
</svg>
